<svg width="706" height="533" viewBox="0 0 706 533" fill="none" xmlns="http://www.w3.org/2000/svg">
<g clip-path="url(#clip0_3_75)">
<path d="M639.284 530.531H489.588V525.85C489.588 521.785 491.172 517.886 493.993 515.012C496.813 512.138 500.638 510.523 504.627 510.523H624.246C628.234 510.523 632.059 512.138 634.879 515.012C637.7 517.886 639.284 521.785 639.284 525.85V530.531Z" fill="#E6E6E6"/>
<path d="M560.933 511.457L565.485 509.589C517.853 389.093 522.442 237.078 562.706 106.676C567.489 91.5667 567.834 75.3623 563.699 60.0562C559.563 44.75 551.128 31.0098 539.43 20.5258C516.059 -0.729337 483.839 -5.90728 455.339 7.01131C427.206 19.765 423.329 41.9801 423.329 64.0871H428.237C428.237 40.489 433.185 22.5292 457.334 11.5817C484.045 -0.525393 514.25 4.33076 536.162 24.2585C547.149 34.1051 555.072 47.0104 558.957 61.3866C562.841 75.7627 562.517 90.9826 558.025 105.174C517.295 237.081 512.975 390.141 560.933 511.457Z" fill="#E6E6E6"/>
<path d="M427.01 137.868C436.497 137.868 444.188 130.03 444.188 120.361C444.188 110.692 436.497 102.853 427.01 102.853C417.523 102.853 409.832 110.692 409.832 120.361C409.832 130.03 417.523 137.868 427.01 137.868Z" fill="#E6E6E6"/>
<path d="M400.554 150.881V117.709H405.615V150.881C407.067 151.479 408.269 152.574 409.016 153.977C409.762 155.379 410.007 157.003 409.708 158.57C409.409 160.137 408.585 161.548 407.376 162.563C406.168 163.578 404.65 164.134 403.084 164.134C401.518 164.134 400.001 163.578 398.793 162.563C397.584 161.548 396.76 160.137 396.46 158.57C396.161 157.003 396.406 155.379 397.153 153.977C397.9 152.574 399.102 151.479 400.554 150.881Z" fill="#E6E6E6"/>
<path d="M376.089 92.2236C376.097 84.5981 379.073 77.2874 384.364 71.8954C389.655 66.5033 396.828 63.4703 404.31 63.4616H450.937C458.422 63.4616 465.6 66.4919 470.892 71.8858C476.185 77.2797 479.158 84.5954 479.158 92.2236C479.158 99.8517 476.185 107.167 470.892 112.561C465.6 117.955 458.422 120.986 450.937 120.986H404.31C396.828 120.977 389.655 117.944 384.364 112.552C379.073 107.16 376.097 99.8491 376.089 92.2236Z" fill="#F9A826"/>
<path d="M310.394 270.336C315.075 209.295 339.011 180.212 323.684 161.973C309.003 144.503 267.65 148.112 241.092 164.876C169.459 210.092 143.215 390.305 235.396 478.354C322.991 562.022 489.001 535.225 525.894 466.743C534.502 450.765 541.34 422.753 528.742 405.789C497.463 363.672 383.74 439.958 333.178 392.244C303.213 363.967 307.824 303.835 310.394 270.336Z" fill="#3F3D56"/>
<path d="M365.151 240.01C363.411 240.826 362.052 242.301 361.363 244.123C360.674 245.944 360.71 247.967 361.463 249.762C361.621 250.124 361.809 250.473 362.024 250.803L346.649 271.726L354.321 283.412L372.342 252.43C373.619 251.415 374.53 249.998 374.934 248.4C375.338 246.802 375.211 245.113 374.573 243.596C374.202 242.736 373.669 241.96 373.003 241.31C372.338 240.661 371.553 240.151 370.695 239.811C369.836 239.47 368.92 239.305 367.999 239.326C367.078 239.346 366.169 239.551 365.326 239.929C365.267 239.955 365.209 239.982 365.151 240.01Z" fill="#FFB6B6"/>
<path d="M365.138 276.084C366.145 276.994 363.353 278.116 360.401 276.345C359.556 275.833 359.195 275.62 359.1 275.755C358.863 276.094 360.249 278.59 359.879 284.134C359.651 287.443 354.259 293.664 348.136 299.73C339.857 307.935 330.231 315.849 330.231 315.849L326.851 313.092L291.412 284.134L285.432 275.697C285.979 272.365 286.802 269.087 287.89 265.896C289.39 261.48 291.172 257.168 293.226 252.989C294.327 250.716 295.457 248.548 296.539 246.555L315.526 267.88L331.437 285.74C331.437 285.74 336.069 278.135 339.658 276.065C340.116 275.767 340.636 275.585 341.177 275.533C344.803 275.358 345.022 273.346 340.816 268.963C336.611 264.58 341.917 268.673 345.658 267.493C349.398 266.312 345.658 267.493 346.446 264.542C347.234 261.591 357.724 255.669 357.724 255.669L358.161 256.066L366.088 263.197L368.357 265.238C368.357 265.238 365.879 272.166 365.195 273.627C364.512 275.088 364.141 275.165 365.138 276.084Z" fill="#F9A826"/>
<path d="M574.104 410.488L574.491 399.816L534.285 393.219L533.714 408.969L574.104 410.488Z" fill="#FFB6B6"/>
<path d="M566.806 413.701L566.425 396.614L573.592 396.883L585.163 381.087C585.735 380.307 586.536 379.733 587.45 379.45C588.364 379.166 589.343 379.188 590.244 379.512C591.145 379.836 591.921 380.445 592.458 381.25C592.995 382.055 593.266 383.014 593.231 383.987L592.496 404.285L585.28 407.517L592.32 409.15L592.043 416.803L566.806 413.701Z" fill="#2F2E41"/>
<path d="M347.82 414.643L475.167 417.934C475.167 417.934 530.16 421.171 543.063 412.617L556.669 410.866L557.407 390.497C557.407 390.497 549.086 390.56 544.303 388.288C539.519 386.017 542.844 383.237 538.283 385.97C533.722 388.703 534.204 389.032 530.677 387.776C527.151 386.52 365.445 361.4 365.445 361.4L347.82 414.643Z" fill="#2F2E41"/>
<path d="M515.63 405.804L523.036 398.249L497.964 365.543L487.034 376.695L515.63 405.804Z" fill="#FFB6B6"/>
<path d="M508.136 399.231L519.259 386.44L524.334 391.606L543.358 388.046C544.298 387.87 545.268 388.005 546.127 388.431C546.987 388.857 547.69 389.551 548.134 390.413C548.578 391.275 548.741 392.259 548.598 393.222C548.454 394.184 548.013 395.075 547.338 395.764L533.253 410.135L525.806 407.503L529.877 413.579L524.567 418.998L508.136 399.231Z" fill="#2F2E41"/>
<path d="M297.578 343.564L298.844 373.557C300.334 408.865 338.488 430.235 368.073 411.799C368.618 411.46 369.165 411.108 369.714 410.744C369.714 410.744 380.93 407.674 380.589 402.813C380.249 397.951 382.989 395.585 385.414 396.911C387.839 398.237 419.586 352.317 419.586 352.317C419.586 352.317 485.548 385.851 500.1 393.745C500.1 393.745 513.781 371.943 512.789 372.172C511.797 372.4 431.187 314.899 431.187 314.899C431.187 314.899 418.054 301.354 401.764 310.297C401.425 311.611 401.715 311.657 401.715 311.657L347.902 356.346L340.298 341.629L297.578 343.564Z" fill="#2F2E41"/>
<path d="M348.316 306.068C348.214 307.453 348.02 308.83 347.737 310.189C347.349 312.157 346.724 314.068 345.876 315.878C345.876 315.878 345.876 317.901 342.079 324.673C338.281 331.446 343.028 328.543 345.876 333.575C348.724 338.596 345.876 336.284 342.715 339.515C341.805 340.455 341.158 341.627 340.843 342.908C340.527 344.19 340.554 345.533 340.921 346.801C340.921 346.801 300.137 346.83 292.542 343.927C284.947 341.024 283.22 324.673 290.026 323.058C296.824 321.442 287.966 319.836 283.97 316.111C279.973 312.386 287.966 306.29 287.966 306.29C287.966 306.29 284.672 300.495 284.947 281.038C284.986 279.248 285.148 277.464 285.432 275.697C285.979 272.366 286.802 269.087 287.89 265.896C289.39 261.48 291.172 257.168 293.226 252.989C294.327 250.716 295.457 248.549 296.539 246.555C296.71 246.246 296.871 245.946 297.042 245.646C299.102 241.931 300.982 238.893 302.225 236.948C303.184 235.439 303.763 234.587 303.763 234.587L310.675 222.338L333.744 233.358L332.433 251.383L336.411 264.977L338.243 271.237L339.658 276.065L341.841 283.544C341.841 283.544 341.243 283.573 341.955 284.569C345.234 289.012 347.36 294.227 348.135 299.73C348.409 301.831 348.469 303.955 348.316 306.068Z" fill="#F9A826"/>
<path d="M414.936 308.01L414.504 307.868L359.289 289.747L379.635 221.719C380.04 220.364 380.742 219.121 381.687 218.083C382.632 217.045 383.796 216.239 385.091 215.726C386.387 215.213 387.779 215.006 389.164 215.121C390.549 215.236 391.89 215.671 393.087 216.391L428.371 237.637C431.164 239.317 433.289 241.943 434.375 245.058C435.46 248.173 435.438 251.577 434.31 254.676L414.936 308.01Z" fill="#2F2E41"/>
<path d="M415.161 312.335L359.502 294.068L379.848 226.04C380.253 224.686 380.955 223.442 381.9 222.404C382.845 221.366 384.009 220.56 385.304 220.047C386.6 219.534 387.992 219.327 389.377 219.443C390.762 219.558 392.103 219.992 393.3 220.712L430.269 239.524C435.823 242.867 435.693 251.52 433.114 258.62L415.161 312.335Z" fill="#F9A826"/>
<path d="M409.588 317.259C408.307 317.996 406.889 318.453 405.424 318.601C403.96 318.75 402.481 318.586 401.082 318.121L365.506 306.445C362.777 305.536 360.504 303.576 359.174 300.982C357.844 298.389 357.561 295.368 358.387 292.565L376.223 232.93C376.579 231.738 377.165 230.631 377.947 229.674C378.729 228.716 379.69 227.928 380.775 227.354C381.859 226.78 383.046 226.433 384.264 226.332C385.482 226.232 386.708 226.38 387.869 226.769L424.736 239.106C426.493 239.694 428.116 240.634 429.51 241.872C430.904 243.11 432.04 244.62 432.852 246.313C433.664 248.006 434.135 249.847 434.236 251.729C434.338 253.61 434.069 255.493 433.445 257.267L414.374 311.452C413.518 313.912 411.818 315.974 409.588 317.259Z" fill="#3F3D56"/>
<path d="M332.439 222.547C346.512 222.547 357.921 210.921 357.921 196.578C357.921 182.236 346.512 170.609 332.439 170.609C318.367 170.609 306.958 182.236 306.958 196.578C306.958 210.921 318.367 222.547 332.439 222.547Z" fill="#FFB6B6"/>
<path d="M246.274 222.939C248.612 227.558 252.447 231.211 257.126 233.278C258.994 234.145 260.957 234.778 262.974 235.164C263.545 232.86 264.457 230.658 265.681 228.635C265.273 230.915 265.273 233.252 265.681 235.532C268.753 235.788 271.845 235.397 274.763 234.383C277.629 233.389 280.228 231.729 282.355 229.534C284.481 227.338 286.076 224.668 287.014 221.734C289.044 214.85 286.857 207.498 286.685 200.313C286.508 193.127 289.856 184.533 296.855 183.643C302.186 182.965 301.526 183.492 305.357 187.33C299.999 193.395 313.06 220.26 320.069 219.073C324.031 218.402 326.947 215.196 327.731 215.307C331.744 225.323 319.672 239.528 329.247 244.192L328.536 243.234C323.525 234.796 338.354 220.545 333.342 212.107C331.945 209.747 330.492 206.979 331.357 204.368C332.177 201.886 336.332 201.1 337.209 203.36C335.784 198.18 339.762 192.102 345.045 191.573C349.739 191.101 349.468 192.465 353.944 193.709C354.516 191.744 355.34 189.864 356.395 188.12C356.038 190.11 355.994 192.146 356.264 194.151C357.879 194.347 359.511 193.995 360.909 193.149C365.042 190.624 365.165 184.106 362.326 180.139C359.481 176.172 354.717 174.213 350.121 172.73C350.079 162.824 323.924 158.082 319.114 167.292C318.619 159.834 310.231 154.811 303.005 156.078C295.78 157.344 290.079 163.249 286.604 169.831C283.13 176.407 281.404 183.771 278.861 190.775C276.317 197.78 272.681 204.765 266.59 208.921C260.499 213.072 251.448 213.449 246.363 208.069C245.203 210.366 244.591 212.91 244.575 215.493C244.56 218.076 245.142 220.627 246.274 222.939Z" fill="#2F2E41"/>
<path d="M272.42 341.694C272.947 341.265 273.519 340.895 274.125 340.593C283.879 335.646 314.209 322.805 337.924 323.332C383.555 324.346 441.627 375.67 428.112 410.136C417.828 436.361 366.701 451.282 329.38 439.348C277.097 422.63 256.46 354.663 272.42 341.694Z" fill="#3F3D56"/>
<path d="M82.9867 530.63C68.0763 527.763 54.878 459.303 84.2137 425.586C94.2645 414.034 106.802 409.007 123.478 404.327C219.464 377.396 292.673 403.063 302.512 409.329C312.328 415.582 329.537 509.791 307.531 523.127C295.15 530.63 270.609 534.382 258.45 525.628C240.559 512.748 270.59 479.338 257.223 456.849C242.055 431.33 162.184 422.734 122.14 448.096C79.4174 475.154 167.54 546.887 82.9867 530.63Z" fill="#F2F2F2"/>
<path d="M182.675 414.233H125.713C111.651 400.498 101.597 387.262 109.646 376.274C109.646 373.116 110.877 370.087 113.068 367.854C115.26 365.621 118.232 364.366 121.331 364.366H187.057C190.156 364.366 193.128 365.621 195.319 367.854C197.511 370.087 198.742 373.116 198.742 376.274C201.807 388.794 196.331 401.449 182.675 414.233Z" fill="#CCCCCC"/>
<path d="M172.445 349.374C171.905 349.4 171.37 349.255 170.913 348.96C170.456 348.665 170.098 348.234 169.89 347.725C169.681 347.217 169.631 346.655 169.746 346.116C169.861 345.577 170.136 345.088 170.533 344.713L170.714 343.981C170.69 343.922 170.666 343.863 170.642 343.805C170.097 342.494 169.185 341.377 168.019 340.593C166.854 339.809 165.487 339.393 164.09 339.398C162.694 339.404 161.33 339.83 160.17 340.622C159.01 341.415 158.106 342.539 157.571 343.854C155.433 349.102 152.711 354.358 152.041 359.907C151.746 362.359 151.87 364.845 152.409 367.255C147.388 356.092 144.78 343.959 144.763 331.679C144.762 328.597 144.93 325.518 145.267 322.456C145.545 319.945 145.93 317.452 146.423 314.978C149.115 301.55 154.893 288.964 163.284 278.254C167.345 275.995 170.629 272.522 172.694 268.303C173.442 266.787 173.971 265.168 174.263 263.497C173.805 263.558 172.536 256.447 172.882 256.011C172.243 255.024 171.101 254.533 170.403 253.569C166.936 248.778 162.158 249.614 159.664 256.126C154.336 258.866 154.284 263.411 157.553 267.783C159.633 270.564 159.919 274.327 161.744 277.304C161.556 277.549 161.361 277.787 161.173 278.032C157.741 282.529 154.75 287.359 152.242 292.452C152.852 286.747 152.124 280.975 150.118 275.613C148.086 270.615 144.275 266.406 140.92 262.086C136.89 256.896 128.626 259.161 127.916 265.739C127.909 265.803 127.902 265.867 127.896 265.931C128.394 266.217 128.882 266.521 129.359 266.843C129.959 267.251 130.423 267.835 130.692 268.517C130.961 269.199 131.021 269.948 130.865 270.665C130.709 271.383 130.344 272.035 129.818 272.538C129.292 273.04 128.629 273.369 127.916 273.481L127.843 273.493C128.021 275.323 128.334 277.137 128.782 278.919C124.478 295.884 133.77 302.063 147.039 302.341C147.332 302.494 147.617 302.647 147.91 302.792C145.391 310.069 143.81 317.649 143.209 325.341C142.868 329.879 142.888 334.438 143.269 338.973L143.246 338.812C142.285 333.77 139.646 329.219 135.774 325.93C130.023 321.116 121.899 319.343 115.695 315.473C115.035 315.042 114.269 314.812 113.485 314.81C112.702 314.808 111.934 315.034 111.273 315.462C110.611 315.891 110.084 316.502 109.753 317.226C109.421 317.95 109.3 318.755 109.403 319.546C109.411 319.603 109.42 319.659 109.428 319.715C110.353 320.099 111.253 320.542 112.124 321.04C112.623 321.326 113.11 321.63 113.588 321.952C114.187 322.36 114.652 322.944 114.921 323.626C115.19 324.308 115.25 325.057 115.094 325.774C114.938 326.492 114.573 327.144 114.047 327.647C113.52 328.15 112.857 328.478 112.145 328.59L112.072 328.602C112.019 328.609 111.974 328.617 111.922 328.625C113.502 332.47 115.72 336.009 118.478 339.088C121.169 353.897 132.729 355.302 145.094 350.99H145.101C146.458 356.998 148.424 362.847 150.967 368.441H171.92C171.996 368.204 172.063 367.959 172.131 367.721C170.191 367.846 168.244 367.727 166.333 367.369C167.887 365.425 169.442 363.466 170.997 361.522C171.031 361.485 171.064 361.447 171.094 361.407C171.883 360.412 172.679 359.424 173.467 358.429L173.468 358.428C173.51 355.378 173.166 352.335 172.445 349.374Z" fill="#CCCCCC"/>
<path d="M243.913 411.122C244.261 412.153 244.92 413.046 245.796 413.672C246.672 414.297 247.721 414.624 248.79 414.604L269.687 414.056C270.765 414.035 271.807 413.658 272.657 412.984C273.507 412.309 274.121 411.372 274.405 410.312L277.362 378.085C278.411 378.57 279.554 378.809 280.705 378.785C282.726 378.734 284.643 377.866 286.036 376.373C287.429 374.881 288.183 372.885 288.132 370.826C288.082 368.767 287.23 366.812 285.766 365.393C284.301 363.973 282.343 363.205 280.323 363.256C279.862 363.255 279.403 363.304 278.953 363.402C278.464 362.862 277.869 362.433 277.207 362.141C276.544 361.85 275.83 361.704 275.109 361.711L242.964 362.557C242.698 362.567 242.432 362.601 242.171 362.657C241.466 362.791 240.798 363.077 240.211 363.497C239.623 363.916 239.131 364.459 238.767 365.088C238.403 365.718 238.175 366.42 238.099 367.146C238.023 367.873 238.101 368.608 238.327 369.301L243.913 411.122ZM277.969 375.897L280.073 368.218C280.312 367.33 280.318 366.395 280.089 365.505C280.191 365.504 280.281 365.455 280.383 365.455C281.826 365.425 283.221 365.979 284.264 366.996C285.306 368.012 285.911 369.409 285.944 370.879C285.978 372.349 285.439 373.773 284.444 374.838C283.449 375.904 282.081 376.524 280.639 376.563C279.706 376.592 278.783 376.362 277.969 375.897Z" fill="#CCCCCC"/>
<path d="M242.171 362.657C242.856 366.648 250.556 369.454 259.814 368.966C268.327 368.566 275.288 365.519 276.563 361.909C276.091 361.766 275.601 361.7 275.108 361.711L242.964 362.557C242.698 362.567 242.432 362.601 242.171 362.657Z" fill="white"/>
<path d="M1.11913 532.141L704.881 532.435C705.178 532.435 705.462 532.315 705.672 532.101C705.882 531.887 706 531.597 706 531.295C706 530.992 705.882 530.702 705.672 530.488C705.462 530.274 705.178 530.154 704.881 530.154L1.11913 529.86C0.822319 529.86 0.537665 529.98 0.327786 530.194C0.117907 530.408 0 530.698 0 531C0 531.303 0.117907 531.593 0.327786 531.807C0.537665 532.021 0.822319 532.141 1.11913 532.141Z" fill="#CACACA"/>
<path d="M395.837 277.235C393.923 277.306 392.112 278.135 390.789 279.547C389.466 280.958 388.736 282.839 388.754 284.791C388.763 285.188 388.805 285.583 388.879 285.973L366.792 299.262L369.466 313.056L397.79 291.518C399.352 291.081 400.728 290.13 401.703 288.813C402.679 287.496 403.199 285.887 403.183 284.237C403.164 283.298 402.965 282.372 402.596 281.512C402.227 280.651 401.695 279.873 401.03 279.223C400.366 278.572 399.583 278.061 398.725 277.718C397.867 277.376 396.951 277.21 396.03 277.228C395.965 277.229 395.901 277.231 395.837 277.235Z" fill="#FFB6B6"/>
<path d="M377.744 308.916C377.153 308.109 376.899 307.771 376.765 307.864C376.419 308.077 376.752 310.927 374.32 315.894C370.895 322.872 334.99 333.56 334.99 333.56L330.569 325.312L311.124 289.065L304.422 260.011C304.188 258.998 304.074 257.96 304.083 256.919C310.059 252.634 316.405 248.911 323.042 245.797C325.695 247.33 327.717 249.786 328.739 252.714L342.124 290.963L347.465 306.234C347.465 306.234 356.887 299.368 360.304 300.628C363.716 301.896 364.686 300.118 362.456 294.426C360.225 288.733 363.573 294.593 367.469 294.965C371.372 295.343 367.469 294.965 369.313 292.55C371.157 290.134 383.077 288.775 383.077 288.775L383.331 289.314L387.95 298.999L389.273 301.781C389.273 301.781 384.375 307.197 383.194 308.276C382.007 309.363 381.64 309.288 382.221 310.527C382.795 311.76 379.796 311.704 377.744 308.916Z" fill="#F9A826"/>
</g>
<defs>
<clipPath id="clip0_3_75">
<rect width="706" height="533" fill="white"/>
</clipPath>
</defs>
</svg>
